{"title":"Limitless 2011 R5 LiNE x264 Feel-Free","uid":6400921,"size":1003021814,"categoryP":"video","categoryS":"movies","magnet":"?xt=urn:btih:5c0decd0e8c2cdd528dfdb352b0c7d22207c96f1&amp;dn=Limitless+2011+R5+LiNE+x264+Feel-Free&amp;tr=udp%3A%2F%2Ftracker.openbittorrent.com%3A80&amp;tr=udp%3A%2F%2Fopen.demonii.com%3A1337&amp;tr=udp%3A%2F%2Ftracker.coppersurfer.tk%3A6969&amp;tr=udp%3A%2F%2Fexodus.desync.com%3A6969","seeders":0,"leechers":1,"uploader":"HeroMaster","files":-1,"time":1305661106,"description":"Limitless 2011 R5 LiNE x264 Feel-Free\n\nGenre:Thriller\nLanguage:English\nIMDb:http://www.imdb.com/title/tt1219289/\nSource:DVD.R5.KINOPARK/IMAGINE Thx.\nSubtitles:Romana\n\nFormat : MPEG-4\nFormat profile : Base Media\nCodec ID : isom\nFile size : 954 MiB\nDuration : 1h 37mn\nOverall bit rate : 1 363 Kbps\n\nVideo\nID : 1\nFormat : AVC\nFormat/Info : Advanced Video Codec\nFormat profile : &lt;a class=&quot;__cf_email__&quot; href=&quot;/cdn-cgi/l/email-protection&quot; data-cfemail=&quot;e2aa8b858aa2aed6ccd3&quot;&gt;[email&amp;#160;protected]&lt;/a&gt;&lt;script cf-hash='f9e31' type=&quot;text/javascript&quot;&gt;\n/* &lt;![CDATA[ */!function(){try{var t=&quot;currentScript&quot;in document?document.currentScript:function(){for(var t=document.getElementsByTagName(&quot;script&quot;),e=t.length;e--;)if(t[e].getAttribute(&quot;cf-hash&quot;))return t[e]}();if(t&amp;&amp;t.previousSibling){var e,r,n,i,c=t.previousSibling,a=c.getAttribute(&quot;data-cfemail&quot;);if(a){for(e=&quot;&quot;,r=parseInt(a.substr(0,2),16),n=2;a.length-n;n+=2)i=parseInt(a.substr(n,2),16)^r,e+=String.fromCharCode(i);e=document.createTextNode(e),c.parentNode.replaceChild(e,c)}}}catch(u){}}();/* ]]&gt; */&lt;/script&gt;\nFormat settings, CABAC : Yes\nFormat settings, ReFrames : 3 frames\nCodec ID : avc1\nCodec ID/Info : Advanced Video Coding\nDuration : 1h 37mn\nBit rate mode : Variable\nBit rate : 1 136 Kbps\nMaximum bit rate : 6 266 Kbps\nWidth : 720 pixels\nHeight : 304 pixels\nDisplay aspect ratio : 2.35:1\nFrame rate mode : Constant\nFrame rate : 25.000 fps\nColor space : YUV\nChroma subsampling : 4:2:0\nBit depth : 8 bits\nScan type : Progressive\nBits/(Pixel*Frame) : 0.208\nStream size : 795 MiB (83%)\nWriting library : x264\n\nAudio\nID : 2\nFormat : AAC\nFormat/Info : Advanced Audio Codec\nFormat version : Version 4\nFormat profile : LC\nFormat settings, SBR : No\nCodec ID : 40\nDuration : 1h 37mn\nBit rate mode : Variable\nBit rate : 224 Kbps\nMaximum bit rate : 284 Kbps\nChannel(s) : 2 channels\nChannel positions : Front: L R\nSampling rate : 44.1 KHz\nStream size : 157 MiB (16%)\n\n\nPlot:\n\nA writer discovers a top-secret drug which bestows him \nwith super human abilities.\n\n\nScreens:\n\n &lt;a href=&quot;\nhttp://www.postimg.com/image/37000/photo-36613.jpg&quot; rel=&quot;nofollow&quot; target=&quot;_NEW&quot;&gt;\nhttp://www.postimg.com/image/37000/photo-36613.jpg&lt;/a&gt;\n &lt;a href=&quot;\nhttp://www.postimg.com/image/37000/photo-36614.jpg&quot; rel=&quot;nofollow&quot; target=&quot;_NEW&quot;&gt;\nhttp://www.postimg.com/image/37000/photo-36614.jpg&lt;/a&gt;\n &lt;a href=&quot;\nhttp://www.postimg.com/image/37000/photo-36615.jpg&quot; rel=&quot;nofollow&quot; target=&quot;_NEW&quot;&gt;\nhttp://www.postimg.com/image/37000/photo-36615.jpg&lt;/a&gt;\n\n\nENJOY!","torrent":{"xt":"urn:btih:5c0decd0e8c2cdd528dfdb352b0c7d22207c96f1","amp;dn":"Limitless+2011+R5+LiNE+x264+Feel-Free","amp;tr":["udp%3A%2F%2Ftracker.openbittorrent.com%3A80","udp%3A%2F%2Fopen.demonii.com%3A1337","udp%3A%2F%2Ftracker.coppersurfer.tk%3A6969","udp%3A%2F%2Fexodus.desync.com%3A6969"],"infoHash":"5c0decd0e8c2cdd528dfdb352b0c7d22207c96f1","infoHashBuffer":{"type":"Buffer","data":[92,13,236,208,232,194,205,213,40,223,219,53,43,12,125,34,32,124,150,241]},"announce":[],"urlList":[]}}